# xmcd
#
# Track frame offsets:
#   150
#   25741
#   44047
#   59925
#   76942
#   90518
#   108991
#   122649
#   136288
#   152543
#   169424
#   185897
#   203080
#   219096
#   235968
#
# Disc length: 3415 seconds
#
# Revision: 0
# Processed by: cddbd v1.5.2PL0 Copyright (c) Steve Scherf et al.
# Submitted via: uFREEDB ActiveX Control 1.5
#
DISCID=d10d550f
DTITLE=CAPRICHOSO - CAPRICHOSO
DYEAR=1900
DGENRE=Alternative
TTITLE0=Pout-porri 1
TTITLE1=Marujada ritimada
TTITLE2=Touro negro
TTITLE3=Beijo azul
TTITLE4=Pintada de aldeia
TTITLE5=Rodopia meu boi
TTITLE6=Rio caprichoso
TTITLE7=Grito ao infinito
TTITLE8=Mundo aul
TTITLE9=Evolução do caprichoso
TTITLE10=Tempos de trapiche
TTITLE11=Sou azul, sou paixão
TTITLE12=Bar do boi
TTITLE13=Fogo do tempo
TTITLE14=Pout-porri ll
EXTD=
EXTT0=
EXTT1=
EXTT2=
EXTT3=
EXTT4=
EXTT5=
EXTT6=
EXTT7=
EXTT8=
EXTT9=
EXTT10=
EXTT11=
EXTT12=
EXTT13=
EXTT14=
PLAYORDER=
